<svg version="1" xmlns="http://www.w3.org/2000/svg" width="373.333" height="373.333" viewBox="0 0 280.000000 280.000000"><path d="M119 1.5C61.9 10.6 16.7 53.5 3.8 111.1c-2 8.8-2.3 13.2-2.3 28.9s.3 20.1 2.3 28.9C18.5 234.4 74.5 280 140.5 280c66 0 122-45.6 136.7-111.1 2-8.8 2.3-13.2 2.3-28.9s-.3-20.1-2.3-28.9c-13-58-58.4-100.9-116.2-109.6-11.6-1.8-30.6-1.8-42 0zm37.3 16.1c4.3.7 4.5 1.6 2.2 9-.8 2.7-7.3 24.6-14.4 48.8-7.1 24.1-13.8 45-14.8 46.5-1.1 1.4-4.4 4-7.4 5.7l-5.4 3.2-45.5 4.1c-25 2.3-47.6 4.5-50.3 4.8l-4.7.6.5-5.9c2.2-22.2 5.6-34.7 13.7-50.7C36.3 71.9 41.9 64 51.4 54.1c27-27.9 67.2-42 104.9-36.5zm20.4 4.5c31.8 10.1 58 32.2 73 61.5 8.2 16 11.7 28.7 13.7 50.4l.6 5.5-49.6-4.2c-53.2-4.5-53.2-4.5-57.7-10.5-2-2.7-2-2.9-.3-22.5.9-10.9 1.9-22.5 2.2-25.8 3.2-41.7 5.2-57.5 7.1-57.5.7 0 5.7 1.4 11 3.1zM34.5 144c8.3.6 19.1 1.6 24 2.1 5 .6 11.7 1.2 15 1.4 3.3.3 8.3.7 11 1 2.8.3 9.1.7 14 1 5 .3 11 .8 13.4 1.1 5.1.7 11.7 4.5 12.6 7.3.6 2 .1 10.9-1.5 27.6-.5 5.5-1.9 21.9-3.1 36.5-1.9 23.7-3.7 37.2-5.3 38.7-1.1 1.1-21.4-6.1-30.9-10.9-23.1-11.9-41.6-30.3-53.4-53.4-8.1-15.8-11.9-29.5-13.6-49.7-.4-4-.2-4.7 1.2-4.3.9.3 8.4 1 16.6 1.6zm228.8 2.7c-1.7 20.2-5.5 33.9-13.6 49.7-8.6 16.8-22 32.5-37.4 43.8-13.8 10.1-35.7 19.2-52.8 21.9-8.6 1.3-32 1.4-37.1.2l-3.2-.8 2-7.5c1-4.1 2.9-11.1 4.3-15.5 1.3-4.4 5.8-20.6 10-36 10.2-37.7 13.2-46.2 17-49.1 2.6-2 4.5-2.3 14.2-2.8 6.2-.2 11.6-.7 12-.9.5-.3 6.1-.8 12.7-1.1 6.5-.3 12.1-.8 12.5-1 .3-.2 6-.7 12.6-1.1 26.7-1.5 38.5-2.4 42.5-3.4 1.9-.5 3.8-.9 4.1-1 .4-.1.5 2 .2 4.6z"/><path d="M119.5 22.9c-1.2 2 .7 15.2 2.2 15.8 2.8 1.1 3.4-1.2 2.6-8.8-.6-5.7-1.2-7.4-2.5-7.7-.9-.2-1.9.2-2.3.7zM83.4 35.5c-.7 1.7 4.4 11.5 6.4 12.2 3.2 1.3 3.3-1.5.3-7.6-3-5.9-5.6-7.7-6.7-4.6zM56.7 55.7c-1.5 1.4-.5 3.3 5.4 9.7 6 6.5 9.9 8.4 9.9 4.8C72 68.7 59.3 55 57.9 55c-.3 0-.9.3-1.2.7zM36.7 83.7c-1.9 1.8 0 3.7 7 6.9 7.8 3.6 10.8 4 10.8 1.4 0-2.2-16.3-9.8-17.8-8.3zM25.4 119.5c-1.1 2.8.8 3.4 11.4 4.1 9.9.7 10.2.6 10.2-1.4 0-2.3-1.2-2.7-13.8-3.7-6.1-.5-7.3-.4-7.8 1zM182.3 34.2c-2.3 2.8-6.4 12.1-6.1 13.6.6 3.4 3.4 1.6 6.5-4.3 3.3-5.9 3.8-9.5 1.7-10.2-.6-.2-1.6.2-2.1.9zM199.5 55.3c-4.2 3.8-5.7 5.8-5.2 7 1.1 2.8 3 2 8.6-3.7 3.6-3.6 5.2-6 4.8-7-1-2.4-1.9-2-8.2 3.7zM219.5 71.5c-8.2 6.6-9.9 9-7.1 10.1 2.1.8 18.6-12.4 18.6-14.9 0-3.1-3.4-1.7-11.5 4.8zM237.2 92.7c-7.1 2.4-9.5 4.4-7.5 6.4.6.6 3.8-.1 8.9-1.8 6.2-2.2 7.9-3.2 7.9-4.7 0-2.8-1.1-2.7-9.3.1zM235.3 117.7c-1.5.3-2.3 1.2-2.3 2.5 0 1.9.5 2 10.5 1.6 10.1-.3 13.5-1.3 12.1-3.7-.7-1.1-15.4-1.3-20.3-.4zM33.5 164.9c-4.8 1.1-7.1 2.2-7.3 3.3-.5 2.6 1.2 2.9 9 1.3 11.9-2.4 11.8-2.4 11.8-4.5 0-2.5-3.4-2.5-13.5-.1zM43.7 188.7c-6.8 2.6-8.9 4.5-7 6.4.7.7 3.5.1 8.4-1.8 5.6-2.2 7.4-3.3 7.4-4.7 0-2.8-1.2-2.8-8.8.1zM56.6 212.4c-4.9 4.5-6.7 6.8-6.3 8 1 2.7 2.9 1.8 10.1-4.8 4.9-4.5 6.7-6.8 6.3-8-1-2.7-2.9-1.8-10.1 4.8zM74.1 229.1c-4.2 5.3-4.7 7.2-1.9 7.7 1.7.3 10.1-9.5 9.5-11.2-.9-2.7-3.7-1.4-7.6 3.5zM96.1 234.4c-2.1 5.4-3.4 14.7-2.2 15.9.8.8 1.4.8 2.2 0 1.4-1.4 5.1-16.1 4.4-17.3-1.1-1.8-3.5-1-4.4 1.4zM230.4 169.5c-1.1 2.6.6 3.2 10.8 4 8.6.6 9.9.5 10.4-1 1.1-2.6-.5-3.2-10.9-3.9-8.5-.6-9.8-.5-10.3.9zM219 195.8c0 2.3 14.9 9.8 17.5 8.8 2.9-1.1 1.1-3-6.5-6.8-8.4-4.2-11-4.7-11-2zM201.5 217c-.7 1.1 1.3 4 8.3 11.9 2.7 3.1 4.4 4.2 5.5 3.8 2.8-1 2-2.9-4.4-10-5.9-6.5-8.1-7.8-9.4-5.7zM181.4 233.4c-.7 1.9 6.8 14.1 8.6 14.1 2.7 0 2.1-3.1-1.6-9.4-3.5-5.9-5.9-7.5-7-4.7zM152.6 239.8c-.9 1.5.6 15.1 1.9 16.9 3 4.1 4.3-2 2.7-12.7-.5-3-1.2-4.6-2.4-4.8-.9-.2-1.9.1-2.2.6z"/></svg>